<svg width="64" height="64" viewBox="0 0 64 64" fill="none" xmlns="http://www.w3.org/2000/svg">
<path d="M59.9275 31.2499L55.8225 9.24992C55.7222 8.71366 55.5133 8.20359 55.2086 7.75107C54.9038 7.29855 54.5097 6.91315 54.0505 6.61858C53.5914 6.324 53.0768 6.12647 52.5384 6.03813C52 5.9498 51.4493 5.97253 50.92 6.10492L50.8425 6.12742L37.7125 9.99992H26.2875L13.1575 6.13992L13.08 6.11742C12.5508 5.98503 12.0001 5.9623 11.4617 6.05063C10.9233 6.13897 10.4087 6.3365 9.94953 6.63108C9.49034 6.92565 9.09626 7.31105 8.79153 7.76357C8.48679 8.21609 8.27785 8.72616 8.17754 9.26242L4.07254 31.2499C3.897 32.1305 4.0273 33.0446 4.4419 33.8411C4.85649 34.6375 5.53054 35.2686 6.35254 35.6299C6.87897 35.8713 7.4509 35.9975 8.03004 35.9999C8.72322 35.9996 9.40359 35.8131 10 35.4599V45.9999C10 48.6521 11.0536 51.1956 12.929 53.071C14.8043 54.9464 17.3479 55.9999 20 55.9999H44C46.6522 55.9999 49.1957 54.9464 51.0711 53.071C52.9465 51.1956 54 48.6521 54 45.9999V35.4624C54.5959 35.8149 55.2752 36.0014 55.9675 36.0024C56.5473 36.0007 57.12 35.8755 57.6475 35.6349C58.4705 35.2734 59.1453 34.6416 59.56 33.844C59.9746 33.0465 60.1043 32.1312 59.9275 31.2499ZM44 51.9999H34V48.8274L37.415 45.4149C37.7903 45.0396 38.0012 44.5306 38.0012 43.9999C38.0012 43.4692 37.7903 42.9602 37.415 42.5849C37.0398 42.2096 36.5308 41.9988 36 41.9988C35.4693 41.9988 34.9603 42.2096 34.585 42.5849L32 45.1724L29.415 42.5849C29.0398 42.2096 28.5308 41.9988 28 41.9988C27.4693 41.9988 26.9603 42.2096 26.585 42.5849C26.2098 42.9602 25.9989 43.4692 25.9989 43.9999C25.9989 44.5306 26.2098 45.0396 26.585 45.4149L30 48.8274V51.9999H20C18.4087 51.9999 16.8826 51.3678 15.7574 50.2426C14.6322 49.1173 14 47.5912 14 45.9999V30.7774L26.9825 13.9999H37.0175L50 30.7774V45.9999C50 47.5912 49.3679 49.1173 48.2427 50.2426C47.1175 51.3678 45.5913 51.9999 44 51.9999ZM26 34.9999C26 35.5933 25.8241 36.1733 25.4945 36.6666C25.1648 37.16 24.6963 37.5445 24.1481 37.7716C23.5999 37.9986 22.9967 38.058 22.4148 37.9423C21.8328 37.8265 21.2983 37.5408 20.8787 37.1212C20.4592 36.7017 20.1734 36.1671 20.0577 35.5852C19.9419 35.0032 20.0013 34.4 20.2284 33.8519C20.4555 33.3037 20.84 32.8352 21.3333 32.5055C21.8267 32.1759 22.4067 31.9999 23 31.9999C23.7957 31.9999 24.5588 32.316 25.1214 32.8786C25.684 33.4412 26 34.2043 26 34.9999ZM44 34.9999C44 35.5933 43.8241 36.1733 43.4944 36.6666C43.1648 37.16 42.6963 37.5445 42.1481 37.7716C41.5999 37.9986 40.9967 38.058 40.4148 37.9423C39.8328 37.8265 39.2983 37.5408 38.8787 37.1212C38.4592 36.7017 38.1734 36.1671 38.0577 35.5852C37.9419 35.0032 38.0013 34.4 38.2284 33.8519C38.4555 33.3037 38.84 32.8352 39.3333 32.5055C39.8267 32.1759 40.4067 31.9999 41 31.9999C41.7957 31.9999 42.5588 32.316 43.1214 32.8786C43.684 33.4412 44 34.2043 44 34.9999Z" fill="#8667AF"/>
</svg>
