<svg width="39" height="39" viewBox="0 0 39 39" fill="none" xmlns="http://www.w3.org/2000/svg">
<path d="M36.5183 19.0431L34.0168 5.63681C33.9557 5.31002 33.8284 4.9992 33.6427 4.72344C33.457 4.44769 33.2168 4.21284 32.937 4.03333C32.6572 3.85382 32.3436 3.73345 32.0155 3.67962C31.6875 3.6258 31.3519 3.63965 31.0294 3.72032L30.9821 3.73403L22.981 6.09384H16.0189L8.01784 3.74165L7.97061 3.72794C7.6481 3.64726 7.31249 3.63341 6.98443 3.68724C6.65636 3.74107 6.34278 3.86144 6.06296 4.04095C5.78314 4.22046 5.54299 4.45531 5.3573 4.73106C5.1716 5.00682 5.04427 5.31764 4.98315 5.64442L2.48167 19.0431C2.37469 19.5797 2.4541 20.1367 2.70674 20.622C2.95939 21.1074 3.37013 21.4919 3.87104 21.7121C4.19183 21.8592 4.54035 21.9361 4.89327 21.9376C5.31567 21.9374 5.73027 21.8237 6.09374 21.6085V28.0313C6.09374 29.6475 6.73575 31.1975 7.87855 32.3403C9.02135 33.4831 10.5713 34.1251 12.1875 34.1251H26.8125C28.4286 34.1251 29.9786 33.4831 31.1214 32.3403C32.2642 31.1975 32.9062 29.6475 32.9062 28.0313V21.61C33.2693 21.8249 33.6833 21.9385 34.1052 21.9391C34.4585 21.9381 34.8075 21.8617 35.1289 21.7152C35.6304 21.4949 36.0416 21.1098 36.2943 20.6238C36.547 20.1379 36.626 19.5801 36.5183 19.0431ZM26.8125 31.6876H20.7187V29.7543L22.7998 27.6749C23.0284 27.4462 23.1569 27.136 23.1569 26.8126C23.1569 26.4892 23.0284 26.179 22.7998 25.9503C22.5711 25.7216 22.2609 25.5932 21.9375 25.5932C21.6141 25.5932 21.3039 25.7216 21.0752 25.9503L19.5 27.5271L17.9248 25.9503C17.6961 25.7216 17.3859 25.5932 17.0625 25.5932C16.7391 25.5932 16.4289 25.7216 16.2002 25.9503C15.9715 26.179 15.8431 26.4892 15.8431 26.8126C15.8431 27.136 15.9715 27.4462 16.2002 27.6749L18.2812 29.7543V31.6876H12.1875C11.2178 31.6876 10.2878 31.3024 9.60213 30.6167C8.91645 29.931 8.53124 29.001 8.53124 28.0313V18.7551L16.4424 8.53134H22.5575L30.4687 18.7551V28.0313C30.4687 29.001 30.0835 29.931 29.3978 30.6167C28.7122 31.3024 27.7822 31.6876 26.8125 31.6876ZM15.8437 21.3282C15.8437 21.6898 15.7365 22.0432 15.5356 22.3439C15.3348 22.6445 15.0492 22.8788 14.7152 23.0172C14.3812 23.1555 14.0136 23.1917 13.659 23.1212C13.3043 23.0507 12.9786 22.8766 12.7229 22.6209C12.4673 22.3652 12.2932 22.0395 12.2226 21.6849C12.1521 21.3302 12.1883 20.9627 12.3266 20.6286C12.465 20.2946 12.6993 20.0091 13 19.8082C13.3006 19.6073 13.654 19.5001 14.0156 19.5001C14.5005 19.5001 14.9655 19.6927 15.3083 20.0355C15.6511 20.3784 15.8437 20.8434 15.8437 21.3282ZM26.8125 21.3282C26.8125 21.6898 26.7053 22.0432 26.5044 22.3439C26.3035 22.6445 26.018 22.8788 25.684 23.0172C25.3499 23.1555 24.9823 23.1917 24.6277 23.1212C24.2731 23.0507 23.9473 22.8766 23.6917 22.6209C23.436 22.3652 23.2619 22.0395 23.1914 21.6849C23.1208 21.3302 23.157 20.9627 23.2954 20.6286C23.4338 20.2946 23.6681 20.0091 23.9687 19.8082C24.2693 19.6073 24.6228 19.5001 24.9844 19.5001C25.4692 19.5001 25.9342 19.6927 26.277 20.0355C26.6199 20.3784 26.8125 20.8434 26.8125 21.3282Z" fill="#8667AF"/>
</svg>
